<?xml version="1.0" encoding="UTF-8"?>
<svg width="107px" height="48px" viewBox="0 0 107 48" version="1.1" xmlns="http://www.w3.org/2000/svg" xmlns:xlink="http://www.w3.org/1999/xlink">
	<title>component/logo</title>
	<g id="component/logo" stroke="none" stroke-width="1" fill="none" fill-rule="evenodd">
		<path d="M11.2161039,32.187013 L11.2161039,26.7771429 L12.6005195,26.7771429 C14.0772294,26.7771429 15.2451082,26.5428571 16.1041558,26.0742857 C16.9632035,25.6057143 17.577316,24.988052 17.9464935,24.2212987 C18.315671,23.4545455 18.5002597,22.6238961 18.5002597,21.7293507 C18.5002597,20.2526407 18.0494372,19.0918615 17.1477922,18.247013 C16.2461472,17.4021645 14.8155844,16.9797403 12.8561039,16.9797403 L12.8561039,16.9797403 L8,16.9797403 L8,32.187013 L11.2161039,32.187013 Z M12.281039,24.1361039 L11.2161039,24.1361039 L11.2161039,19.6207792 L12.6857143,19.6207792 C14.3896104,19.6207792 15.2415584,20.3591342 15.2415584,21.8358442 C15.2415584,22.6451948 14.9753247,23.2309091 14.4428571,23.592987 C13.9103896,23.9550649 13.1897836,24.1361039 12.281039,24.1361039 L12.281039,24.1361039 Z M24.2935065,32.187013 L24.2935065,16 L21.12,16 L21.12,32.187013 L24.2935065,32.187013 Z M30.4488312,32.4 C31.4143723,32.4 32.174026,32.2580087 32.7277922,31.974026 C33.2815585,31.6900433 33.8069264,31.235671 34.3038961,30.6109091 L34.3038961,30.6109091 L34.3890909,30.6109091 L35.0067533,32.187013 L37.2218182,32.187013 L37.2218182,24.4342857 C37.2218182,23.0427706 36.8064935,22.0097836 35.9758442,21.3353247 C35.1451948,20.6608658 33.9489178,20.3236364 32.387013,20.3236364 C31.5634632,20.3236364 30.7683117,20.4194805 30.0015585,20.6111688 C29.2348052,20.8028571 28.5461472,21.0548918 27.9355844,21.3672727 L27.9355844,21.3672727 L28.9792208,23.5184416 C29.5187879,23.2770563 30.058355,23.0747186 30.5979221,22.9114286 C31.1374892,22.7481385 31.6912554,22.6664935 32.2592208,22.6664935 C32.8271862,22.6664935 33.2709091,22.8084849 33.5903896,23.0924675 C33.9098701,23.3764502 34.0696104,23.8237229 34.0696104,24.4342857 L34.0696104,24.4342857 L34.0696104,24.9454546 L32.0462338,25.0093507 C30.3139394,25.0803463 29.0147186,25.4069264 28.1485714,25.9890909 C27.2824243,26.5712554 26.8493507,27.48 26.8493507,28.7153247 C26.8493507,29.9790476 27.1901299,30.9090909 27.8716883,31.5054546 C28.5532468,32.1018182 29.4122944,32.4 30.4488312,32.4 Z M31.6415585,30.0784416 C31.1871862,30.0784416 30.8180087,29.9754978 30.534026,29.7696104 C30.2500433,29.563723 30.108052,29.2193939 30.108052,28.7366234 C30.108052,28.1828571 30.3068398,27.7355844 30.7044156,27.3948052 C31.1019914,27.054026 31.8119481,26.8694372 32.8342857,26.841039 L32.8342857,26.841039 L34.0696104,26.7984416 L34.0696104,27.7568831 C34.0696104,28.4952381 33.8353247,29.0667533 33.3667533,29.4714286 C32.8981818,29.8761039 32.3231169,30.0784416 31.6415585,30.0784416 Z M43.654026,32.187013 L43.654026,26.7132468 C43.654026,25.4779221 43.8315152,24.5301299 44.1864935,23.8698701 C44.5414719,23.2096104 45.2017316,22.8794805 46.1672727,22.8794805 C46.8204329,22.8794805 47.2961039,23.0889178 47.5942857,23.5077922 C47.8924676,23.9266667 48.0415585,24.5549784 48.0415585,25.3927273 L48.0415585,25.3927273 L48.0415585,32.187013 L51.215065,32.187013 L51.215065,24.6046753 C51.215065,23.1137662 50.8387879,22.0310823 50.0862338,21.3566234 C49.3336797,20.6821645 48.3326407,20.3449351 47.0831169,20.3449351 C46.3589611,20.3449351 45.6738528,20.4798268 45.0277922,20.7496104 C44.3817316,21.0193939 43.8741126,21.4524675 43.5049351,22.0488312 L43.5049351,22.0488312 L43.3345455,22.0488312 L42.9085714,20.5579221 L40.4805195,20.5579221 L40.4805195,32.187013 L43.654026,32.187013 Z M57.6472728,32.187013 L57.6472728,26.7132468 C57.6472728,25.4779221 57.8141126,24.5301299 58.1477922,23.8698701 C58.4814719,23.2096104 59.0884849,22.8794805 59.9688312,22.8794805 C61.1331602,22.8794805 61.7153247,23.7172294 61.7153247,25.3927273 L61.7153247,25.3927273 L61.7153247,32.187013 L64.8888312,32.187013 L64.8888312,26.3511688 C64.8888312,25.2294372 65.0663204,24.3703896 65.4212987,23.774026 C65.7762771,23.1776623 66.3726407,22.8794805 67.2103896,22.8794805 C68.3747186,22.8794805 68.9568832,23.7172294 68.9568832,25.3927273 L68.9568832,25.3927273 L68.9568832,32.187013 L72.1303896,32.187013 L72.1303896,24.6046753 C72.1303896,23.1137662 71.7931602,22.0310823 71.1187013,21.3566234 C70.4442425,20.6821645 69.4467533,20.3449351 68.1262338,20.3449351 C67.4588745,20.3449351 66.8092641,20.4798268 66.1774026,20.7496104 C65.5455412,21.0193939 65.0521212,21.4524675 64.6971429,22.0488312 L64.6971429,22.0488312 L64.4202598,22.0488312 C64.0936797,21.4666667 63.6357576,21.0371429 63.0464935,20.7602597 C62.4572295,20.4833766 61.7366234,20.3449351 60.8846754,20.3449351 C60.217316,20.3449351 59.5748052,20.4798268 58.9571429,20.7496104 C58.3394805,21.0193939 57.8531602,21.4524675 57.4981818,22.0488312 L57.4981818,22.0488312 L57.3277922,22.0488312 L56.9018182,20.5579221 L54.4737663,20.5579221 L54.4737663,32.187013 L57.6472728,32.187013 Z M78.2218182,32.4 C79.1873593,32.4 79.947013,32.2580087 80.5007793,31.974026 C81.0545455,31.6900433 81.5799135,31.235671 82.0768832,30.6109091 L82.0768832,30.6109091 L82.162078,30.6109091 L82.7797403,32.187013 L84.9948052,32.187013 L84.9948052,24.4342857 C84.9948052,23.0427706 84.5794806,22.0097836 83.7488312,21.3353247 C82.9181819,20.6608658 81.7219048,20.3236364 80.16,20.3236364 C79.3364503,20.3236364 78.5412987,20.4194805 77.7745455,20.6111688 C77.0077922,20.8028571 76.3191342,21.0548918 75.7085715,21.3672727 L75.7085715,21.3672727 L76.7522078,23.5184416 C77.2917749,23.2770563 77.831342,23.0747186 78.3709091,22.9114286 C78.9104762,22.7481385 79.4642425,22.6664935 80.0322078,22.6664935 C80.6001732,22.6664935 81.0438961,22.8084849 81.3633767,23.0924675 C81.6828572,23.3764502 81.8425974,23.8237229 81.8425974,24.4342857 L81.8425974,24.4342857 L81.8425974,24.9454546 L79.8192208,25.0093507 C78.0869264,25.0803463 76.7877057,25.4069264 75.9215585,25.9890909 C75.0554113,26.5712554 74.6223377,27.48 74.6223377,28.7153247 C74.6223377,29.9790476 74.9631169,30.9090909 75.6446754,31.5054546 C76.3262338,32.1018182 77.1852814,32.4 78.2218182,32.4 Z M79.4145455,30.0784416 C78.9601732,30.0784416 78.5909957,29.9754978 78.307013,29.7696104 C78.0230303,29.563723 77.881039,29.2193939 77.881039,28.7366234 C77.881039,28.1828571 78.0798269,27.7355844 78.4774026,27.3948052 C78.8749784,27.054026 79.5849351,26.8694372 80.6072728,26.841039 L80.6072728,26.841039 L81.8425974,26.7984416 L81.8425974,27.7568831 C81.8425974,28.4952381 81.6083117,29.0667533 81.1397403,29.4714286 C80.6711689,29.8761039 80.0961039,30.0784416 79.4145455,30.0784416 Z M91.427013,32.187013 L91.427013,26.7132468 C91.427013,25.4779221 91.6045022,24.5301299 91.9594806,23.8698701 C92.3144589,23.2096104 92.9747187,22.8794805 93.9402598,22.8794805 C94.59342,22.8794805 95.069091,23.0889178 95.3672728,23.5077922 C95.6654546,23.9266667 95.8145455,24.5549784 95.8145455,25.3927273 L95.8145455,25.3927273 L95.8145455,32.187013 L98.988052,32.187013 L98.988052,24.6046753 C98.988052,23.1137662 98.6117749,22.0310823 97.8592208,21.3566234 C97.1066667,20.6821645 96.1056278,20.3449351 94.8561039,20.3449351 C94.1319481,20.3449351 93.4468399,20.4798268 92.8007793,20.7496104 C92.1547187,21.0193939 91.6470996,21.4524675 91.2779221,22.0488312 L91.2779221,22.0488312 L91.1075325,22.0488312 L90.6815585,20.5579221 L88.2535065,20.5579221 L88.2535065,32.187013 L91.427013,32.187013 Z" id="Planman" fill="#E83744" fill-rule="nonzero"></path>
	</g>
</svg>